<svg fill="none" height="72" viewBox="0 0 72 72" width="72" xmlns="http://www.w3.org/2000/svg"><rect fill="#fff" height="72" rx="12" width="72"/><g fill="#000"><path clip-rule="evenodd" d="m47.5915 38.8271-11.3137 22.611h6.8782l1.5412-3.0475h11.566l1.5494 3.0475h7.0069l-11.2494-22.611zm3.8412 10.0459c.1178.2369.241.4845.3695.7429l2.0438 4.0201h-6.7444l2.033-4.0201c.2356-.4738.45-.9261.6427-1.3568.2144-.4307.4071-.8506.5787-1.2597.0473-.1132.093-.2255.1372-.3369.0287.0791.058.1591.0876.2399.1501.4091.3214.8398.5144 1.2921.1071.2154.2196.4416.3375.6785z" fill-rule="evenodd"/><path clip-rule="evenodd" d="m10.7017 61.4381v-22.611h12.9865c2.143 0 3.9003.2907 5.2718.8722 1.3929.56 2.4216 1.3999 3.0859 2.5196.6858 1.0981 1.0286 2.4441 1.0286 4.0376 0 1.5288-.3857 2.8856-1.1572 4.0699-.7714 1.1628-1.8322 2.0781-3.1823 2.7455l-.4457.2177 6.1353 8.1485h-7.8755l-5.5096-7.3508-3.8445-.0139v7.3647zm12.6008-12.2098h-6.1075v-4.9098h6.011c.5358 0 1.0287.0862 1.4787.2583.45.1724.8036.4415 1.0608.8075.2786.3445.4179.8075.4179 1.3891 0 .5597-.1393 1.0227-.4179 1.3887-.2572.3661-.6.6355-1.0286.8076-.4286.1724-.9001.2586-1.4144.2586z" fill-rule="evenodd"/><path clip-rule="evenodd" d="m39.2432 35.3053v-22.611h13.2216c2.0539 0 3.787.2261 5.1988.6783 1.4122.4523 2.4818 1.0875 3.2092 1.9058.7276.8183 1.0913 1.7766 1.0913 2.8749 0 1.3136-.3637 2.4226-1.0913 3.327-.6602.6718-1.779 1.2987-2.2559 1.5281.5932.1995 1.1634.4546 1.7105.7653.8344.4522 1.5082 1.0552 2.0218 1.8089.535.7321.8023 1.6473.8023 2.7456 0 1.4213-.3102 2.5841-.9308 3.4885-.6203.9045-1.4333 1.6151-2.439 2.1319-.9839.4953-2.0539.8506-3.2091 1.066-1.1338.1938-2.2252.2907-3.2734.2907zm14.1845-5.4912h-7.7663v-3.7793h7.6057c.3851 0 .8237.0538 1.3158.1615.4922.0861.9201.2584 1.2838.5168.3636.2584.5453.6568.5453 1.1952 0 .4522-.1388.8183-.4172 1.0982-.2566.28-.6096.4845-1.0589.6138-.4493.1292-.9522.1938-1.5082.1938zm-1.3159-8.463h-6.4504v-3.1655h6.3862c.8987 0 1.6474.1184 2.2466.3553.5989.2153.8983.603.8983 1.1628 0 .3876-.1281.6999-.3851.9368-.2352.2368-.5881.4199-1.0589.5491-.4493.1077-.995.1615-1.6367.1615z" fill-rule="evenodd"/><path d="m21.9466 35.491c-2.1924 0-4.1913-.2879-5.9968-.8637-1.8055-.5972-3.3639-1.4182-4.675-2.4632-1.31114-1.0663-2.32135-2.3033-3.03067-3.7108-.70931-1.4289-1.06395-2.975-1.06395-4.6385 0-1.6634.35464-3.1989 1.06395-4.6064.7308-1.4289 1.75177-2.6659 3.06287-3.7108 1.3112-1.0664 2.8587-1.8874 4.6428-2.4632 1.8055-.5971 3.7937-.8957 5.9646-.8957s4.1483.2986 5.9324.8957c1.8054.5758 3.3638 1.3968 4.6749 2.4632 1.3111 1.0449 2.3214 2.2819 3.0307 3.7108.7308 1.4075 1.0962 2.9323 1.0962 4.5744 0 1.6848-.3654 3.2416-1.0962 4.6705-.7093 1.4075-1.7196 2.6445-3.0307 3.7108-1.3111 1.045-2.8695 1.866-4.6749 2.4632-1.7841.5758-3.7508.8637-5.9002.8637zm-.0322-6.3979c1.1177 0 2.1386-.128 3.0629-.3839.9457-.2772 1.7518-.6504 2.4181-1.1196.6878-.4905 1.2144-1.0557 1.5798-1.6955.3869-.6397.5803-1.3328.5803-2.0793 0-.7464-.1934-1.4395-.5803-2.0793-.3654-.6398-.892-1.1943-1.5798-1.6635-.6663-.4904-1.4724-.8636-2.4181-1.1196-.9243-.2772-1.9452-.4158-3.0629-.4158s-2.1494.1386-3.0952.4158c-.9242.256-1.7302.6292-2.4181 1.1196-.6878.4692-1.2144 1.0237-1.5798 1.6635s-.5481 1.3329-.5481 2.0793c0 .7465.1827 1.4396.5481 2.0793.3654.6398.892 1.205 1.5798 1.6955.6879.4692 1.4939.8424 2.4181 1.1196.9458.2559 1.9775.3839 3.0952.3839z"/></g></svg>