<svg width="32" height="32" viewBox="0 0 32 32" fill="none" xmlns="http://www.w3.org/2000/svg">
<path fill-rule="evenodd" clip-rule="evenodd" d="M21.2288 16.9925L16.1254 28H19.228L19.9232 26.5164H25.1404L25.8393 28H29L23.9256 16.9925H21.2288ZM22.9615 21.883C23.0146 21.9984 23.0702 22.1189 23.1282 22.2447L24.0501 24.2018H21.0078L21.9249 22.2447C22.0311 22.014 22.1278 21.7939 22.2148 21.5842C22.3115 21.3745 22.3984 21.1701 22.4758 20.9709C22.4971 20.9158 22.5178 20.8612 22.5377 20.8069C22.5506 20.8454 22.5639 20.8844 22.5772 20.9237C22.6449 21.1229 22.7222 21.3325 22.8092 21.5527C22.8576 21.6576 22.9083 21.7677 22.9615 21.883Z" fill="white"/>
<path fill-rule="evenodd" clip-rule="evenodd" d="M4 28V16.9925H9.85796C10.8246 16.9925 11.6173 17.134 12.236 17.4171C12.8643 17.6897 13.3283 18.0986 13.628 18.6437C13.9373 19.1783 14.0919 19.8335 14.0919 20.6093C14.0919 21.3535 13.918 22.014 13.57 22.5906C13.222 23.1567 12.7435 23.6023 12.1345 23.9272L11.9334 24.0331L14.7009 28H11.1485L8.66318 24.4215L6.929 24.4147V28H4ZM9.68398 22.056H6.929V19.6658H9.64045C9.88214 19.6658 10.1045 19.7078 10.3075 19.7916C10.5105 19.8755 10.67 20.0065 10.786 20.1847C10.9116 20.3524 10.9745 20.5778 10.9745 20.8609C10.9745 21.1334 10.9116 21.3588 10.786 21.537C10.67 21.7152 10.5153 21.8463 10.322 21.9301C10.1287 22.014 9.91597 22.056 9.68398 22.056Z" fill="white"/>
<path fill-rule="evenodd" clip-rule="evenodd" d="M17 15.4075V4.39999H22.964C23.8905 4.39999 24.6723 4.51006 25.3091 4.73021C25.9461 4.95039 26.4286 5.25962 26.7567 5.65799C27.0849 6.05636 27.249 6.52288 27.249 7.05755C27.249 7.69704 27.0849 8.23693 26.7567 8.67721C26.4589 9.00426 25.9542 9.30945 25.7391 9.42112C26.0067 9.51824 26.2639 9.64243 26.5107 9.79369C26.8871 10.0138 27.191 10.3074 27.4227 10.6743C27.664 11.0307 27.7846 11.4762 27.7846 12.0109C27.7846 12.7028 27.6447 13.2689 27.3647 13.7092C27.0849 14.1495 26.7182 14.4955 26.2645 14.747C25.8207 14.9882 25.3381 15.1611 24.817 15.266C24.3055 15.3603 23.8132 15.4075 23.3404 15.4075H17ZM23.3984 12.7343H19.8951V10.8944H23.3259C23.4996 10.8944 23.6975 10.9206 23.9194 10.9731C24.1415 11.015 24.3345 11.0989 24.4985 11.2247C24.6626 11.3504 24.7445 11.5444 24.7445 11.8065C24.7445 12.0266 24.6819 12.2049 24.5563 12.3411C24.4406 12.4774 24.2814 12.577 24.0787 12.6399C23.876 12.7028 23.6492 12.7343 23.3984 12.7343ZM22.8048 8.61431H19.8951V7.07328H22.7758C23.1812 7.07328 23.5189 7.13092 23.7892 7.24625C24.0594 7.35106 24.1944 7.5398 24.1944 7.81232C24.1944 8.00101 24.1366 8.15305 24.0207 8.26838C23.9146 8.38366 23.7554 8.47279 23.5431 8.53569C23.3404 8.58812 23.0942 8.61431 22.8048 8.61431Z" fill="white"/>
<path d="M9.66085 15.3684C8.6719 15.3684 7.77024 15.2283 6.95581 14.9479C6.14138 14.6572 5.43842 14.2575 4.84701 13.7488C4.25558 13.2297 3.79989 12.6275 3.47993 11.9423C3.15997 11.2467 3 10.494 3 9.68418C3 8.8744 3.15997 8.12689 3.47993 7.44168C3.80958 6.74606 4.27012 6.14387 4.86153 5.63519C5.45299 5.11604 6.15103 4.71636 6.95581 4.43605C7.77024 4.14537 8.66707 4 9.64633 4C10.6256 4 11.5175 4.14537 12.3223 4.43605C13.1367 4.71636 13.8397 5.11604 14.4311 5.63519C15.0225 6.14387 15.4782 6.74606 15.7982 7.44168C16.1278 8.12689 16.2926 8.86919 16.2926 9.6686C16.2926 10.4888 16.1278 11.2467 15.7982 11.9423C15.4782 12.6275 15.0225 13.2297 14.4311 13.7488C13.8397 14.2575 13.1367 14.6572 12.3223 14.9479C11.5175 15.2283 10.6304 15.3684 9.66085 15.3684ZM9.64633 12.2538C10.1505 12.2538 10.611 12.1915 11.0279 12.0669C11.4545 11.9319 11.8181 11.7503 12.1187 11.5218C12.429 11.283 12.6665 11.0079 12.8313 10.6964C13.0058 10.385 13.0931 10.0476 13.0931 9.68418C13.0931 9.32082 13.0058 8.9834 12.8313 8.67193C12.6665 8.36046 12.429 8.09052 12.1187 7.8621C11.8181 7.62337 11.4545 7.44168 11.0279 7.31706C10.611 7.18211 10.1505 7.11464 9.64633 7.11464C9.14215 7.11464 8.67677 7.18211 8.25014 7.31706C7.83325 7.44168 7.46968 7.62337 7.15938 7.8621C6.84913 8.09052 6.61159 8.36046 6.44676 8.67193C6.28194 8.9834 6.19953 9.32082 6.19953 9.68418C6.19953 10.0476 6.28194 10.385 6.44676 10.6964C6.61159 11.0079 6.84913 11.283 7.15938 11.5218C7.46968 11.7503 7.83325 11.9319 8.25014 12.0669C8.67677 12.1915 9.14215 12.2538 9.64633 12.2538Z" fill="white"/>
</svg>
