<svg width="96" height="50" viewBox="0 0 96 50" fill="none" xmlns="http://www.w3.org/2000/svg">
<g clip-path="url(#clip0_2006_275)">
<path d="M41.6667 0H8.33333C3.73096 0 0 3.73096 0 8.33333V41.6667C0 46.269 3.73096 50 8.33333 50H41.6667C46.269 50 50 46.269 50 41.6667V8.33333C50 3.73096 46.269 0 41.6667 0Z" fill="white"/>
<path fill-rule="evenodd" clip-rule="evenodd" d="M33.0497 26.9633L25.1929 42.6653H29.9694L31.0397 40.549H39.0717L40.1476 42.6653H45.0135L37.2015 26.9633H33.0497ZM35.7172 33.9396C35.799 34.1041 35.8845 34.276 35.9738 34.4555L37.3931 37.2472H32.7094L34.1213 34.4555C34.2849 34.1265 34.4338 33.8124 34.5676 33.5133C34.7165 33.2142 34.8503 32.9226 34.9694 32.6385C35.0023 32.5599 35.034 32.4819 35.0647 32.4045C35.0847 32.4594 35.105 32.515 35.1256 32.5711C35.2298 32.8552 35.3487 33.1543 35.4828 33.4684C35.5572 33.618 35.6353 33.7751 35.7172 33.9396Z" fill="black"/>
<path fill-rule="evenodd" clip-rule="evenodd" d="M7.43174 42.6653V26.9633H16.4501C17.9383 26.9633 19.1587 27.1651 20.1111 27.569C21.0784 27.9578 21.7928 28.5411 22.2541 29.3187C22.7304 30.0813 22.9684 31.016 22.9684 32.1226C22.9684 33.1842 22.7006 34.1265 22.1648 34.9489C21.6291 35.7564 20.8924 36.392 19.9549 36.8555L19.6454 37.0067L23.906 42.6653H18.4369L14.6108 37.5606L11.941 37.551V42.6653H7.43174ZM16.1823 34.1863H11.941V30.7767H16.1153C16.4874 30.7767 16.8297 30.8366 17.1422 30.9561C17.4547 31.0758 17.7002 31.2627 17.8788 31.5169C18.0723 31.7561 18.169 32.0776 18.169 32.4815C18.169 32.8702 18.0723 33.1917 17.8788 33.4459C17.7002 33.7001 17.4622 33.8872 17.1645 34.0067C16.8669 34.1265 16.5394 34.1863 16.1823 34.1863Z" fill="black"/>
<path fill-rule="evenodd" clip-rule="evenodd" d="M27.2522 24.5176V8.81549H36.4339C37.8602 8.81549 39.0638 8.9725 40.0442 9.28653C41.0249 9.60062 41.7676 10.0417 42.2728 10.61C42.7781 11.1783 43.0306 11.8437 43.0306 12.6065C43.0306 13.5187 42.7781 14.2888 42.2728 14.9169C41.8143 15.3834 41.0374 15.8187 40.7062 15.9781C41.1181 16.1166 41.5141 16.2937 41.894 16.5095C42.4735 16.8235 42.9414 17.2423 43.2981 17.7657C43.6696 18.2741 43.8552 18.9097 43.8552 19.6724C43.8552 20.6594 43.6398 21.4669 43.2088 22.0949C42.7781 22.7231 42.2135 23.2165 41.5151 23.5754C40.8318 23.9194 40.0888 24.1661 39.2865 24.3157C38.4992 24.4503 37.7413 24.5176 37.0133 24.5176H27.2522ZM37.1026 20.7042H31.7093V18.0797H36.991C37.2585 18.0797 37.5631 18.1171 37.9048 18.1919C38.2466 18.2517 38.5438 18.3713 38.7963 18.5508C39.0488 18.7302 39.175 19.0069 39.175 19.3808C39.175 19.6948 39.0786 19.949 38.8853 20.1434C38.7071 20.3378 38.4619 20.4799 38.1499 20.5697C37.8379 20.6594 37.4887 20.7042 37.1026 20.7042ZM36.1888 14.8272H31.7093V12.6289H36.1442C36.7683 12.6289 37.2882 12.7111 37.7043 12.8756C38.1202 13.0251 38.3281 13.2944 38.3281 13.6831C38.3281 13.9523 38.2392 14.1692 38.0607 14.3337C37.8974 14.4981 37.6523 14.6253 37.3253 14.715C37.0133 14.7898 36.6344 14.8272 36.1888 14.8272Z" fill="black"/>
<path d="M15.2407 24.6465C13.7182 24.6465 12.3301 24.4466 11.0762 24.0467C9.82243 23.632 8.74021 23.0619 7.82972 22.3362C6.91921 21.5957 6.21767 20.7367 5.72509 19.7592C5.23251 18.7669 4.98624 17.6933 4.98624 16.5381C4.98624 15.3829 5.23251 14.3166 5.72509 13.3392C6.23259 12.3469 6.9416 11.4878 7.85208 10.7622C8.76264 10.0217 9.83729 9.45153 11.0762 9.05167C12.3301 8.63701 13.7108 8.42965 15.2183 8.42965C16.7259 8.42965 18.0991 8.63701 19.3381 9.05167C20.5918 9.45153 21.674 10.0217 22.5845 10.7622C23.495 11.4878 24.1966 12.3469 24.6892 13.3392C25.1967 14.3166 25.4504 15.3755 25.4504 16.5158C25.4504 17.6858 25.1967 18.7669 24.6892 19.7592C24.1966 20.7367 23.495 21.5957 22.5845 22.3362C21.674 23.0619 20.5918 23.632 19.3381 24.0467C18.0991 24.4466 16.7333 24.6465 15.2407 24.6465ZM15.2183 20.2035C15.9945 20.2035 16.7035 20.1147 17.3453 19.9369C18.0021 19.7444 18.5619 19.4853 19.0246 19.1594C19.5022 18.8188 19.8679 18.4263 20.1217 17.982C20.3903 17.5378 20.5247 17.0565 20.5247 16.5381C20.5247 16.0197 20.3903 15.5384 20.1217 15.0941C19.8679 14.6498 19.5022 14.2647 19.0246 13.9389C18.5619 13.5983 18.0021 13.3392 17.3453 13.1614C16.7035 12.9689 15.9945 12.8726 15.2183 12.8726C14.4422 12.8726 13.7257 12.9689 13.0689 13.1614C12.4271 13.3392 11.8674 13.5983 11.3897 13.9389C10.912 14.2647 10.5463 14.6498 10.2926 15.0941C10.0388 15.5384 9.91194 16.0197 9.91194 16.5381C9.91194 17.0565 10.0388 17.5378 10.2926 17.982C10.5463 18.4263 10.912 18.8188 11.3897 19.1594C11.8674 19.4853 12.4271 19.7444 13.0689 19.9369C13.7257 20.1147 14.4422 20.2035 15.2183 20.2035Z" fill="black"/>
</g>
<g clip-path="url(#clip1_2006_275)">
<path d="M89.625 9H68.375C64.8542 9 62 11.8542 62 15.375V36.625C62 40.1458 64.8542 43 68.375 43H89.625C93.1458 43 96 40.1458 96 36.625V15.375C96 11.8542 93.1458 9 89.625 9Z" fill="black"/>
<path d="M71.5625 33.4375L86.4375 18.5625M80.0625 33.4375L86.4375 27.0625" stroke="white" stroke-width="2" stroke-linecap="round" stroke-linejoin="round"/>
</g>
<defs>
<clipPath id="clip0_2006_275">
<rect width="50" height="50" fill="white"/>
</clipPath>
<clipPath id="clip1_2006_275">
<rect width="34" height="34" fill="white" transform="translate(62 9)"/>
</clipPath>
</defs>
</svg>
