<svg width="224" height="96" viewBox="0 0 224 96" fill="none" xmlns="http://www.w3.org/2000/svg">
<g clip-path="url(#clip0_1_42)">
<path fill-rule="evenodd" clip-rule="evenodd" d="M67.9934 51.4253L48.9832 89.4181H60.5405L63.1301 84.2974H82.5643L85.1677 89.4181H96.9413L78.0391 51.4253H67.9934ZM74.4476 68.3053C74.6456 68.7032 74.8527 69.1193 75.0685 69.5534L78.5027 76.3083H67.1702L70.5862 69.5534C70.982 68.7573 71.3424 67.9974 71.6661 67.2737C72.0264 66.55 72.3502 65.8444 72.6385 65.1569C72.718 64.9668 72.7948 64.7781 72.869 64.5908C72.9173 64.7238 72.9664 64.8582 73.0162 64.994C73.2685 65.6814 73.5562 66.4051 73.8805 67.1651C74.0604 67.527 74.2495 67.9071 74.4476 68.3053Z" fill="white"/>
<path fill-rule="evenodd" clip-rule="evenodd" d="M6.00787 89.4181V51.4253H27.829C31.4298 51.4253 34.3825 51.9136 36.687 52.8908C39.0276 53.8318 40.756 55.243 41.8723 57.1244C43.0245 58.9696 43.6006 61.2312 43.6006 63.9087C43.6006 66.4776 42.9525 68.7573 41.6562 70.7474C40.3599 72.7012 38.5775 74.2391 36.309 75.3606L35.5601 75.7263L45.8692 89.4181H32.6361L23.3784 77.0666L16.9184 77.0434V89.4181H6.00787ZM27.1808 68.9022H16.9184V60.6523H27.0188C27.919 60.6523 28.7472 60.7972 29.5034 61.0863C30.2595 61.376 30.8537 61.8281 31.2858 62.4432C31.7539 63.022 31.988 63.8001 31.988 64.7773C31.988 65.7177 31.7539 66.4957 31.2858 67.1107C30.8537 67.7258 30.2776 68.1785 29.5574 68.4676C28.8372 68.7573 28.045 68.9022 27.1808 68.9022Z" fill="white"/>
<path fill-rule="evenodd" clip-rule="evenodd" d="M53.9659 45.5086V7.51582H76.1821C79.6332 7.51582 82.5452 7.89572 84.9175 8.65558C87.2904 9.41544 89.0876 10.4829 90.3098 11.8579C91.5325 13.2328 92.1436 14.843 92.1436 16.6884C92.1436 18.8956 91.5325 20.7591 90.3098 22.2787C89.2005 23.4076 87.3207 24.4609 86.5194 24.8464C87.5161 25.1817 88.4741 25.6103 89.3935 26.1323C90.7955 26.8921 91.9277 27.9053 92.7906 29.1717C93.6895 30.4019 94.1387 31.9398 94.1387 33.7851C94.1387 36.1733 93.6176 38.1272 92.5747 39.6469C91.5325 41.1666 90.1664 42.3607 88.4766 43.2291C86.8232 44.0613 85.0254 44.6583 83.0843 45.0202C81.1791 45.3458 79.3453 45.5086 77.5841 45.5086H53.9659ZM77.8 36.2818H64.7505V29.9316H77.5301C78.1772 29.9316 78.9142 30.022 79.7411 30.2029C80.5681 30.3477 81.2871 30.6372 81.8981 31.0714C82.5092 31.5055 82.8144 32.175 82.8144 33.0796C82.8144 33.8394 82.5812 34.4546 82.1134 34.9249C81.6823 35.3953 81.0892 35.7391 80.3342 35.9562C79.5792 36.1733 78.7343 36.2818 77.8 36.2818ZM75.589 22.0617H64.7505V16.7427H75.481C76.991 16.7427 78.2491 16.9417 79.256 17.3397C80.2622 17.7015 80.7654 18.3528 80.7654 19.2936C80.7654 19.9449 80.5501 20.4696 80.1183 20.8676C79.7231 21.2656 79.13 21.5732 78.3391 21.7903C77.5841 21.9712 76.6672 22.0617 75.589 22.0617Z" fill="white"/>
<path d="M24.0479 6.58162C27.591 6.58162 30.8187 7.08321 33.7305 8.0865C36.6771 9.05398 39.2205 10.4336 41.3604 12.2252C43.5003 13.981 45.1499 16.0596 46.3076 18.4605C47.5004 20.8255 48.0967 23.3878 48.0967 26.147C48.0967 28.9778 47.5003 31.5939 46.3076 33.9947C45.1499 36.3597 43.5003 38.4384 41.3604 40.2301C39.2205 41.9859 36.6771 43.3654 33.7305 44.3687C30.8187 45.3362 27.6086 45.8199 24.1006 45.8199C20.5225 45.8199 17.2601 45.3361 14.3135 44.3687C11.3666 43.3653 8.82258 41.986 6.68262 40.2301C4.54274 38.4384 2.894 36.3597 1.73633 33.9947C0.578684 31.5938 0 28.9958 0 26.2008C1.34339e-05 23.4057 0.578641 20.8255 1.73633 18.4605C2.92908 16.0596 4.59541 13.981 6.73535 12.2252C8.87531 10.4335 11.4017 9.05404 14.3135 8.0865C17.2601 7.08327 20.5049 6.58165 24.0479 6.58162ZM24.0479 15.691C17.1512 15.691 11.5597 20.3963 11.5596 26.2008C11.5596 32.0054 17.1511 36.7115 24.0479 36.7115C30.9446 36.7115 36.5352 32.0053 36.5352 26.2008C36.535 20.3963 30.9445 15.691 24.0479 15.691Z" fill="white"/>
</g>
<g clip-path="url(#clip1_1_42)">
<path d="M224 0H128V96H224V0Z" fill="black"/>
<path d="M206 48L176 78" stroke="white" stroke-width="8" stroke-linecap="round" stroke-linejoin="round"/>
<path d="M200 15L143 72" stroke="white" stroke-width="8" stroke-linecap="round" stroke-linejoin="round"/>
</g>
<defs>
<clipPath id="clip0_1_42">
<rect width="96.9423" height="82.8368" fill="white" transform="translate(0 6.58162)"/>
</clipPath>
<clipPath id="clip1_1_42">
<rect x="128" width="96" height="96" rx="16" fill="white"/>
</clipPath>
</defs>
</svg>
