<svg width="224" height="96" viewBox="0 0 224 96" fill="none" xmlns="http://www.w3.org/2000/svg">
<rect width="96" height="96" rx="16" fill="black"/>
<g clip-path="url(#clip0_1_2)">
<path fill-rule="evenodd" clip-rule="evenodd" d="M61.3648 50.1812L48.5024 75.8871H56.3221L58.0742 72.4225H71.2235L72.9849 75.8871H80.951L68.1617 50.1812H61.3648ZM65.7317 61.6022C65.8657 61.8714 66.0058 62.1529 66.1518 62.4467L68.4754 67.017H60.8078L63.1191 62.4467C63.3869 61.908 63.6307 61.3939 63.8497 60.9042C64.0935 60.4145 64.3126 59.9371 64.5076 59.472C64.5615 59.3434 64.6134 59.2157 64.6636 59.089C64.6963 59.1789 64.7295 59.2698 64.7632 59.3617C64.9339 59.8269 65.1286 60.3165 65.348 60.8307C65.4698 61.0756 65.5977 61.3327 65.7317 61.6022Z" fill="white"/>
<path fill-rule="evenodd" clip-rule="evenodd" d="M19.4253 75.8871V50.1812H34.1895C36.6258 50.1812 38.6236 50.5115 40.1829 51.1727C41.7665 51.8094 42.9359 52.7642 43.6912 54.0372C44.4708 55.2856 44.8606 56.8158 44.8606 58.6274C44.8606 60.3655 44.4221 61.908 43.545 63.2545C42.6679 64.5764 41.462 65.617 39.9271 66.3758L39.4204 66.6232L46.3955 75.8871H37.442L31.1782 67.5301L26.8074 67.5144V75.8871H19.4253ZM33.7509 62.006H26.8074V56.4242H33.6413C34.2504 56.4242 34.8107 56.5222 35.3224 56.7178C35.834 56.9138 36.236 57.2197 36.5284 57.6359C36.8451 58.0275 37.0035 58.5539 37.0035 59.2151C37.0035 59.8514 36.8451 60.3778 36.5284 60.7939C36.236 61.2101 35.8462 61.5164 35.3589 61.712C34.8717 61.908 34.3357 62.006 33.7509 62.006Z" fill="white"/>
<path fill-rule="evenodd" clip-rule="evenodd" d="M51.8738 46.1779V20.4719H66.9052C69.2403 20.4719 71.2105 20.729 72.8157 21.2431C74.4212 21.7572 75.6372 22.4794 76.4641 23.4098C77.2914 24.3401 77.7048 25.4295 77.7048 26.6781C77.7048 28.1715 77.2914 29.4323 76.4641 30.4605C75.7136 31.2243 74.4416 31.937 73.8995 32.1978C74.5739 32.4247 75.2221 32.7147 75.8441 33.0678C76.7927 33.582 77.5587 34.2675 78.1426 35.1243C78.7508 35.9567 79.0547 36.9972 79.0547 38.2458C79.0547 39.8616 78.7021 41.1836 77.9965 42.2118C77.2914 43.2401 76.3671 44.048 75.2237 44.6356C74.1051 45.1986 72.8887 45.6026 71.5753 45.8474C70.2863 46.0677 69.0455 46.1779 67.8539 46.1779H51.8738ZM67.9999 39.935H59.1706V35.6384H67.8173C68.2551 35.6384 68.7538 35.6997 69.3133 35.8221C69.8728 35.92 70.3593 36.1159 70.7727 36.4096C71.1862 36.7034 71.3927 37.1563 71.3927 37.7684C71.3927 38.2825 71.2349 38.6987 70.9184 39.017C70.6267 39.3352 70.2254 39.5678 69.7146 39.7147C69.2038 39.8616 68.6321 39.935 67.9999 39.935ZM66.504 30.3137H59.1706V26.7148H66.4309C67.4526 26.7148 68.3038 26.8495 68.9851 27.1187C69.6659 27.3636 70.0063 27.8043 70.0063 28.4408C70.0063 28.8814 69.8606 29.2365 69.5685 29.5057C69.3011 29.775 68.8998 29.9832 68.3647 30.13C67.8539 30.2524 67.2335 30.3137 66.504 30.3137Z" fill="white"/>
<path d="M31.6318 19.8398C34.029 19.8399 36.2126 20.1796 38.1826 20.8584C40.1762 21.513 41.8969 22.4461 43.3447 23.6582C44.7926 24.8462 45.9091 26.2525 46.6924 27.877C47.4994 29.4771 47.9023 31.2112 47.9023 33.0781C47.9023 34.9933 47.4993 36.7634 46.6924 38.3877C45.9091 39.9879 44.7926 41.3942 43.3447 42.6064C41.8969 43.7944 40.1763 44.7284 38.1826 45.4072C36.2125 46.0618 34.0405 46.3887 31.667 46.3887C29.246 46.3887 27.0386 46.0617 25.0449 45.4072C23.0511 44.7283 21.3297 43.7945 19.8818 42.6064C18.434 41.3942 17.3184 39.9879 16.5352 38.3877C15.7519 36.7632 15.3604 35.0054 15.3604 33.1143C15.3604 31.2231 15.7519 29.4771 16.5352 27.877C17.3422 26.2526 18.4701 24.8462 19.918 23.6582C21.3658 22.446 23.075 21.513 25.0449 20.8584C27.0387 20.1796 29.2346 19.8398 31.6318 19.8398ZM31.6309 26.0029C26.9646 26.003 23.1817 29.187 23.1816 33.1143C23.1816 37.0416 26.9646 40.2255 31.6309 40.2256C36.2972 40.2256 40.0801 37.0417 40.0801 33.1143C40.08 29.1869 36.2972 26.0029 31.6309 26.0029Z" fill="white"/>
</g>
<g clip-path="url(#clip1_1_2)">
<path d="M206 48L176 78" stroke="black" stroke-width="10" stroke-linecap="round" stroke-linejoin="round"/>
<path d="M200 15L143 72" stroke="black" stroke-width="10" stroke-linecap="round" stroke-linejoin="round"/>
</g>
<defs>
<clipPath id="clip0_1_2">
<rect width="65.5913" height="56.0475" fill="white" transform="translate(15.3604 19.8398)"/>
</clipPath>
<clipPath id="clip1_1_2">
<rect width="96" height="96" fill="white" transform="translate(128)"/>
</clipPath>
</defs>
</svg>
